<svg id="Layer_1" data-name="Layer 1" xmlns="http://www.w3.org/2000/svg" viewBox="0 0 500 600"><defs><style>.cls-1{fill:#137c3c;}</style></defs><path class="cls-1" d="M435.82,271.32c30.14-30.14,45.71-70,45.71-111.83C481.53,72,409.56,0,322,0H0V93.36H56.4V506.64H0V600H312.32A187.16,187.16,0,0,0,500,412.32C500,359.8,476.66,305.34,435.82,271.32ZM150,93.36H322c36,0,65.15,30.14,65.15,66.13A65.15,65.15,0,0,1,322,224.64H150ZM312.3,506.64H150V319H312.3c51.54,0,94.32,41.83,94.32,93.36S363.84,506.64,312.3,506.64Z"/></svg>